<svg xmlns="http://www.w3.org/2000/svg" xmlns:xlink="http://www.w3.org/1999/xlink" width="1568.4" height="1229.21" viewBox="0 0 1568.4 1229.21"><defs><style>.cls-1{isolation:isolate;}</style></defs><title>asset1</title><g id="Layer_2" data-name="Layer 2"><g id="Layer_1-2" data-name="Layer 1"><path d="M384,989c2.9-2.9,6-2.8,9.2.4,2.1,2.1,5,2.1,8.8,0,3.7-1.9,8.4-1.5,13.9,1.2,3.4,1.9,5.8,3.9,7,6s2.2,6.2,3,12.3c1.3,8.2,3,13.1,5,14.7s5.1.5,9.4-3.2c3.7-4,6.8-6,9.4-6s6-1.5,10.6-4.4c7.4-5,14.7-5,21.7,0s10.6,12.8,10.6,23.1c0,5.6.9,8.5,2.6,8.8s5.2-1.7,10.6-6q20.7-17.1,32.1-20.1c7.6-2,14.9.1,22.1,6.2l8.8,7.6-1.6,21.1c-1.6,14.3-4.6,26-9.2,35.1-4.5,9.6-6.8,15.1-6.8,16.7s-1.2,5.1-3.6,10.4c-4.8,9-6.6,22.3-5.6,39.8s4.4,27.2,10,29.1c3.7.8,8.8-.7,15.1-4.4,6.1-4,11.6-6,16.3-6,4,0,7.6,1.8,11,5.4s4.3,6.8,3,9.8c-1.3,3.2-5.8,6.6-13.4,10.4a77.4,77.4,0,0,1-22.5,7.2,44,44,0,0,1-11.6,0c-2.7-.5-5.8-2.1-9.6-4.8-8-5.8-13.3-12.3-15.9-19.3s-4-18-4-32.9c0-18.1.8-30,2.4-35.9,3.2-10.1,6-20.6,8.6-31.7a243.24,243.24,0,0,0,4.8-26.3c.7-6.5.3-10.2-1-11-5.3,0-17.1,11.4-35.2,34.1s-28.4,38.8-30.5,48.4c-1.1,5.1-4.8,14.9-11.2,29.5s-12.7,27.9-19.1,39.8c-3.2,5.9-7,9.4-11.4,10.6s-7.9-.2-10.6-4.2-3.2-9.3-1.6-15.9c.8-5.3,3-11.7,6.8-19.1,3.7-6.9,5.6-12.2,5.6-15.9s1.9-8,5.6-12.8c4-5,6.2-9.8,6.6-14.3a21.43,21.43,0,0,1,5-12c4-4.2,9.2-16.5,15.7-36.7s9-31.7,7.4-34.7c-.8-1.3-4.9-.1-12.4,3.6s-11.2,6.4-11.2,8.2-5.3,11.4-15.9,28.9c-10.6,16.2-18.1,30.5-22.3,43-4.5,11.7-9,20.9-13.5,27.5-4.8,7.4-7.2,12.1-7.2,13.9-.3,2.9-3.8,10.8-10.8,23.7s-11.4,19.9-13.5,20.9c-2.6,1.3-5,1.3-6.9,0-11.4-7.5-9.3-19.8-3.6-30.1,3.3-5.9,6.6-11.8,9.8-17.8s6.5-11.8,9.4-17.8c11.5-24.2,14.6-51.1,25.2-75.4,4.5-10.4,7.2-17.5,8-21.5s.8-9.7,0-17.1l-2-16.3-10,.8c-6.4.8-11,2.5-13.7,5s-3,5.2-.6,8.2c5,5.8,1.6,15-10.4,27.5-13,13.5-23.4,18.1-31.1,13.5-4-2.1-6-7.2-6-15.1s1.9-16.3,5.6-25.1c2.9-6.4,6.2-11.2,10-14.5s11.4-8.2,23.1-14.5C377.61,993,382.91,989.83,384,989Z"/><path d="M748,1189.63c.1,8.2-11.1,14.4-16.8,18.3-3.6,2.5-15.3,10.2-16.6,11.7-1.8,1.8-11.1,4.5-14.9,4.6-8.1,3.2-20.2-2.2-21.5-2.8-4-1.9-9.6-6.2-16.7-12.9l-8.7-8.4-11.4,8.4a55.83,55.83,0,0,1-25.4,9.7c-22.4,2.3-47-10.3-41.8-36.3,3.8-18.6,21.2-42.3,34.7-55.4,5.8-5.6,10.5-8.4,14-8.4,1.6,0,3.8,1.5,6.7,4.3,2,2.2,2.9,4,2.8,5.4s-1.3,4.1-3.5,8.4q-27.75,54.15-14.4,58.9l1.7.3c6.2.9,14.8-4.2,25.6-15.4s18.3-22.4,22.6-33.8a98.21,98.21,0,0,1,11.4-20.7q6-8.1,8.7-9c1.8-.7,5.1.2,10,2.7,4.2,2.2,6.5,4.8,6.7,7.7s-1.3,7.5-4.7,13.7a49.3,49.3,0,0,0-4,8.7c-1.1,3.1-1.9,5.8-2.5,8s-1.3,5.3-2.3,9.2-1.8,7-2.5,9.2a75.42,75.42,0,0,0-2.3,18.1c0,5.6.9,9.3,2.7,11,1.5,1.5,4.8,2.5,9.9,2.8,4.6-1.8,9.5-3.1,12.8-4.8,11.6-6,20.7-11.7,27.4-17.1C742.11,1180.73,747.91,1180.63,748,1189.63Z"/><path d="M863.11,1177.23c.1,8.2-11.1,14.4-16.8,18.3a60,60,0,0,1-11.1,6c-.5.2-1.3.7-2.3,1.2-3.2,3.4-6.7,6.7-11,8.5a31.83,31.83,0,0,1-11.9,2.2c-4.6,1.4-8.5,1.6-10.7-.3-8.9-.8-18.7-2.8-26.3,1.3a14.39,14.39,0,0,1-7.5,1.5c-3-.1-8.2-.7-15.5-1.8-4.4-.6-8.8-1.1-13.2-1.6-2.1-.2-6.2.3-7.9-.8-2.9-1.9-5.1-9.2-6.1-12.3a52.66,52.66,0,0,1-2.6-12.4,17,17,0,0,1,.1-4.5c.5-2.4,1.5-5.7,3.6-6.9s4.9-.5,7.1-2.5a12.27,12.27,0,0,0,3.2-5.2,26.44,26.44,0,0,0,1.6-7.9,12.24,12.24,0,0,1,.8-4.7c1.3-2.5,4.2-3.1,6.2-4.7a16.51,16.51,0,0,0,4.6-6.2c1.8-4,2.6-8.3,3.8-12.5,1.6-5.7,2.9-11.4,4-17.1s1.8-10.6,2.2-14.7c.7-9.3,1.7-14.8,3-16.4s3.7-2.4,7.3-2.3a15.74,15.74,0,0,1,9.2,2.9c5.2,3.7,6.7,13,8.5,18.8a174.5,174.5,0,0,1,5.9,22.6c2.2,12.4,2.4,25.7,6.8,37.6,2.5,6.6,3.6,10.9,2.4,17.9-1.5,9.4-1.4,19.4,10.8,18.4,8.7-.7,14.7-6.5,20.9-12,5.8-5.2,12.2-9.3,18.4-14.1C857.31,1168.33,863.11,1168.23,863.11,1177.23Zm-86.6-23.5c-3.7-11-5.9-16.5-6.8-16.5q-1.65,0-2.7,6.3c-.9,3.8-2,6.7-3.3,8.5-1.8,2.6-4.7,8-8.6,16.3s-5.6,12.9-5.1,13.8c.7,1.1,2.2,2.2,4.5,3.4a31.16,31.16,0,0,0,7.4,2.7,15.83,15.83,0,0,0,6.7.4c6.8-1.5,10.7-4.8,11.9-10S780.31,1165.23,776.51,1153.73Z"/><path d="M967.21,1194.63c.1,8.2-11.1,14.4-16.8,18.3a60,60,0,0,1-11.1,6c-1.2.5-6.7,2.7-6.7,2.7a92,92,0,0,1-29.5,6.5c-7.8.4-16.7.8-23.8-2.8-5.1-2.5-11.6-4.7-16.2-7.8-5-3.4-7.6-9.2-10-14.7-4.8-11.2-8.8-23.4-8.8-35.9,0-6.3,1.1-14.7,3.3-24.9,1.7-7.1,3.6-17.8,7.8-23.7a77.38,77.38,0,0,1,7.5-9.6,38.67,38.67,0,0,1,30.9-11.2c8,.7,19.7,3.2,21.1,12.8,3.8,25.3-14.4,43.6-25.5,64.2-6.7,12.5-10,20-10,22.4q0,3,5.7,8.4c2.4,2.2,4.6,3.6,6.5,4s5.3.2,10.2-.7a176.81,176.81,0,0,0,25.4-5.7c6.3-2,24.1-9.4,27.4-12.1C961.31,1185.73,967.11,1185.73,967.21,1194.63Zm-88.8-37.3c6.1-11.7,9.2-18.8,9.2-21.2,0-2.9-1.6-4.7-4.7-5.5s-5.6-.1-7.4,2.2a27.7,27.7,0,0,0-4.5,8,73.88,73.88,0,0,0-3.5,11c-.9,3.8-1.6,7.4-2.2,10.9a26.25,26.25,0,0,0-.3,8.7c.3,2.3,1,3.5,2.2,3.5S872.21,1168.93,878.41,1157.33Z"/><path d="M1107,1183.23c.1,8.2-11.1,14.4-16.8,18.3a57,57,0,0,1-11.1,6,8.1,8.1,0,0,1-1.3.6,4.11,4.11,0,0,1-2,1.9,22.17,22.17,0,0,1-3.9,1.3c-11.5,6.2-40.1,5.2-44.6,2.6s-10.2-16.6-11.2-20.8a48,48,0,0,1-1-13.9c.3-5,1.2-13,2.5-23.9v-3.2a2,2,0,0,0-.8-1.7,6.33,6.33,0,0,0-2.2-.7,32.62,32.62,0,0,0-3.7-.2c-6.6,0-12.2-3.3-18.5-3.4.2,0-6.3,28.3-11.3,31.3a61.75,61.75,0,0,1-17.1,6.8c-12.2,2.7,7.6-44,10.6-51.1,5.6-13.5,11.9-26.5,11.9-41.5,0-2.5,1.6-6.8,4.7-12.9s5.6-9.9,7.3-11.2c2.5-1.3,5.7-1.8,9.9-1.5s6.9,1.3,8.2,2.8q2.7,3.3,0,26.1c-1.3,9.8-2,16.2-1.8,19.2a11,11,0,0,0,2.5,7.2c1.8,1.6,3.4,2.3,4.7,2.2s3.9-1.3,7.7-3.5q8.4-4.65,12-4.5c2.4.1,4.8,1.8,7,5.2a11,11,0,0,1,2.2,6.5c-.1,1.9-1.3,5.6-3.5,11.2a247.22,247.22,0,0,0-8,27.4c-1.8,8-2.4,14-1.7,17.9s3.1,8.5,7.4,13.9c1.8,2.5,3.2,3.8,4.2,4.2,1.7.6,6.8-2.1,8.6-2.6,3.1-.8,6.4-1.5,9.3-3,11.6-6,20.7-11.7,27.5-17.1C1101.11,1174.33,1106.91,1174.23,1107,1183.23Z"/><path d="M1336.81,1188.33c.1,7.9-10.7,13.8-16.2,17.6a53,53,0,0,1-10.7,5.8c-1.1.5-6.4,2.6-6.4,2.6a85.8,85.8,0,0,1-28.4,6.2c-7.5.4-16.1.7-22.9-2.7-4.9-2.4-11.1-4.5-15.6-7.5a19.86,19.86,0,0,1-5.7-6.2,87.05,87.05,0,0,1-7,6,48.14,48.14,0,0,1-9.6,5.8c-8.7,4.5-14.9,7.7-18.6,9.7-6.6,3.4-12.4,4.4-17.5,2.9s-11-6-17.8-13.5c-5.4-6-8.6-10.1-9.6-12.4s-1.5-6.6-1.5-13.1a102.23,102.23,0,0,1,4.4-28.7c2.7-10.1,3.8-15.6,3.2-16.4-.8-.9-6.1,3.8-15.9,14s-19.4,21-28.8,32.4-14.1,17.9-14.1,19.6c0,1.5-.8,3.1-2.5,4.8a21.55,21.55,0,0,1-6,4.2,10.07,10.07,0,0,1-6.4,1c-2.9-.4-4.9-3-6.1-7.7a15.79,15.79,0,0,1-.5-8.5c.7-2.5,2.9-6.8,6.6-13,9.3-16.5,16.3-41.1,27.7-56.3.7-.9,1.4-1.8,2.2-2.7,2.8-3.3,10-6.7,14-3.9,2.2,1.6,1.2,8.1,3.2,8.5.9.2,3.1-1.1,6.5-3.9,6-4.7,15.5-8.6,28.5-11.6q7.8-2.25,10.2-1.8c1.6.3,3.5,1.7,5.8,4a17.17,17.17,0,0,1,4.8,12.1,22,22,0,0,1-4.2,13.4c-2.3,3.7-5.2,10.8-8.7,21.6s-5.2,18.1-5.2,22.2a21.21,21.21,0,0,0,2.6,9.3,28,28,0,0,0,6.4,8.5c2.5,2.3,4.9,3.4,7,3.4q4.65,0,19.8-8.7a172.14,172.14,0,0,0,21.2-14.2c-3.6-9.3-6.4-19.3-6.4-29.4,0-6.1,1.1-14.1,3.2-24,1.6-6.9,3.5-17.2,7.5-22.9a71.17,71.17,0,0,1,7.2-9.2,36.9,36.9,0,0,1,29.7-10.7c7.8.6,19,3.1,20.3,12.3,3.7,24.4-13.9,41.9-24.5,61.8-6.4,12-9.7,19.2-9.7,21.6,0,1.9,1.8,4.6,5.5,8.1a16.09,16.09,0,0,0,6.3,3.9c1.8.4,5.1.2,9.8-.6a178.1,178.1,0,0,0,24.5-5.5c6-1.9,23.2-9.1,26.4-11.6C1331.21,1179.73,1336.71,1179.73,1336.81,1188.33Zm-76.7-56.5c0-2.8-1.5-4.6-4.5-5.3s-5.4-.1-7.1,2.1a28,28,0,0,0-4.4,7.7,77,77,0,0,0-3.4,10.6q-1.35,5.4-2.1,10.5a27.2,27.2,0,0,0-.3,8.4c.3,2.3,1,3.4,2.1,3.4,1.3,0,4.9-5.6,10.8-16.9S1260.11,1134.23,1260.11,1131.83Z"/><image id="image0" class="cls-1" width="501" height="534" transform="translate(400.93) rotate(30.16) scale(1.49)" xlink:href="309CE33B.png"/><image id="image0-2" data-name="image0" class="cls-1" width="501" height="534" transform="translate(936.43 31.22) rotate(28.96) scale(1.44)" xlink:href="309CE339.png"/></g></g></svg>
